<svg height="135.099" width="136" xml:space="preserve" xmlns="http://www.w3.org/2000/svg">
    <circle cx="68" cy="67.549" fill="#3A87CF" r="63.333" />
    <path d="M112.966 22.947c24.733 24.733 24.735 64.832 0 89.567-24.732 24.732-64.834 24.733-89.568 0l89.568-89.567z" fill="#4DACFF" />
    <path d="M129.092 84.246 83.659 38.813l-9.256 9.257L49 44.5l5.236 23.735L35.98 86.491l6.417 6.417-1.583 1.583 35.793 35.794c25.331-3.444 45.89-21.855 52.485-46.039z" fill="#6EBAFF" />
    <path d="M81.132 101.086c11.856 0 21.488-9.658 21.554-21.449l.133-17.361-.199-.945-.57-1.188-.964-.746c-1.251-.98-7.591.066-9.298-1.483-1.21-1.106-1.399-3.105-1.767-5.813-.681-5.246-1.109-5.52-1.931-7.297-2.986-6.316-11.084-11.062-16.649-11.717H56.37c-11.858 0-21.551 9.673-21.551 21.486v25.064c0 11.791 9.693 21.449 21.551 21.449h24.762zM56.644 50.639h11.949c2.282 0 4.13 1.852 4.13 4.103 0 2.242-1.848 4.11-4.13 4.11H56.644c-2.281 0-4.125-1.868-4.125-4.11 0-2.252 1.844-4.103 4.125-4.103zm-4.125 28.679c0-2.25 1.844-4.087 4.125-4.087h24.28c2.267 0 4.107 1.837 4.107 4.087 0 2.222-1.84 4.088-4.107 4.088h-24.28c-2.281 0-4.125-1.866-4.125-4.088z" fill="#F5F6F9" />
</svg>