<?xml version="1.0" standalone="no"?>
<!DOCTYPE svg PUBLIC "-//W3C//DTD SVG 20010904//EN"
 "http://www.w3.org/TR/2001/REC-SVG-20010904/DTD/svg10.dtd">
<svg version="1.0" xmlns="http://www.w3.org/2000/svg"
 width="512.000000pt" height="512.000000pt" viewBox="0 0 512.000000 512.000000"
 preserveAspectRatio="xMidYMid meet">
<metadata>
Created by potrace 1.14, written by Peter Selinger 2001-2017
</metadata>
<g transform="translate(0.000000,512.000000) scale(0.100000,-0.100000)"
fill="#000000" stroke="none">
<path d="M2320 4949 c-101 -12 -210 -30 -265 -43 -362 -84 -685 -236 -950
-446 -120 -96 -124 -100 -225 -200 -146 -146 -253 -283 -358 -457 -63 -103
-147 -272 -177 -354 -34 -92 -94 -283 -100 -316 -3 -20 -7 -39 -10 -43 -10
-17 -45 -243 -52 -337 -51 -716 193 -1382 693 -1889 165 -168 248 -233 474
-376 120 -75 350 -177 515 -228 357 -110 751 -135 1118 -69 641 114 1209 490
1573 1040 139 211 260 485 320 724 13 52 36 167 40 195 2 19 6 44 8 55 27 118
28 526 3 695 -52 339 -169 656 -349 943 -98 157 -199 280 -352 431 -212 208
-436 361 -702 480 -209 93 -400 148 -654 187 -90 14 -458 19 -550 8z"/>
</g>
</svg>
